<?xml version="1.0" standalone="no"?>
<!DOCTYPE svg PUBLIC "-//W3C//DTD SVG 20010904//EN" "http://www.w3.org/TR/2001/REC-SVG-20010904/DTD/svg10.dtd">
<svg version="1.0" xmlns="http://www.w3.org/2000/svg" width="50" height="50" viewBox="0 0 512.000000 512.000000" preserveAspectRatio="xMidYMid meet">
	<g transform="translate(0.000000,512.000000) scale(0.100000,-0.100000)" fill="#000000" stroke="none">
		<path d="M910 4674 c-223 -58 -408 -245 -465 -469 -22 -88 -22 -843 0 -930 21 -83 74 -190 124 -252 80 -99 237 -196 359 -222 85 -18 841 -15 919 4 180 42 333 166 419 337 61 120 64 149 64 595 0 437 -3 465 -55 579 -83 182 -235 309 -430 359 -84 21 -852 21 -935 -1z m847 -419 c62 -18 126 -84 143 -144 7 -28 10 -158 8 -394 -3 -384 -2 -379 -64 -441 -62 -62 -57 -61 -441 -64 -236 -2 -366 1 -394 8 -60 17 -126 81 -144 143 -22 74 -22 680 0 754 18 61 84 125 143 141 20 5 186 10 368 11 267 1 340 -2 381 -14z"/>
		<path d="M3270 4674 c-127 -34 -258 -118 -339 -216 -52 -62 -114 -191 -130 -266 -7 -34 -11 -199 -11 -455 0 -455 3 -477 72 -610 80 -154 244 -283 409 -322 93 -22 845 -22 938 0 199 47 368 202 450 413 l26 67 0 455 0 455 -26 67 c-64 163 -175 291 -313 358 -141 69 -150 70 -611 69 -327 0 -421 -3 -465 -15z m845 -418 c65 -20 121 -76 140 -140 22 -73 22 -680 0 -753 -18 -62 -84 -126 -144 -143 -28 -7 -158 -10 -394 -8 -384 3 -379 2 -441 64 -61 62 -61 57 -64 437 -4 410 -1 430 73 495 25 22 62 45 83 50 20 5 186 10 368 11 262 1 341 -2 379 -13z"/>
		<path d="M3790 2341 c-74 -24 -119 -63 -145 -123 -12 -30 -15 -83 -15 -272 l0 -235 -242 -3 c-226 -3 -246 -4 -283 -25 -77 -41 -115 -105 -115 -193 0 -84 53 -161 132 -194 30 -13 83 -16 273 -16 l235 0 0 -240 c0 -217 2 -244 19 -278 84 -163 306 -161 382 3 16 35 19 68 19 278 l0 237 235 0 c256 0 281 4 339 58 81 76 88 220 13 300 -12 13 -40 34 -62 45 -37 21 -57 22 -282 25 l-243 3 0 235 c0 251 -5 281 -53 332 -47 51 -149 82 -207 63z"/>
		<path d="M907 2314 c-165 -40 -332 -174 -406 -326 -72 -146 -72 -153 -69 -635 l3 -428 26 -67 c38 -98 86 -172 155 -242 70 -69 144 -117 242 -155 l67 -26 428 -3 c474 -3 488 -2 622 62 133 63 235 169 300 311 52 112 55 141 55 578 0 446 -3 475 -64 595 -86 171 -239 295 -419 337 -88 21 -854 20 -940 -1z m878 -426 c39 -21 82 -64 103 -103 15 -26 17 -77 20 -382 2 -236 -1 -366 -8 -394 -17 -60 -81 -126 -143 -144 -65 -19 -670 -22 -745 -3 -64 16 -134 86 -150 150 -8 31 -12 156 -12 371 0 370 4 398 68 460 67 66 74 67 477 64 313 -2 364 -4 390 -19z"/>
	</g>
	<!-- 512.000000 -->
</svg>
