<?xml version="1.0" standalone="no"?>
<!DOCTYPE svg PUBLIC "-//W3C//DTD SVG 20010904//EN" "http://www.w3.org/TR/2001/REC-SVG-20010904/DTD/svg10.dtd">
<svg version="1.0" xmlns="http://www.w3.org/2000/svg" width="50" height="50" viewBox="0 0 512.000000 512.000000" preserveAspectRatio="xMidYMid meet">
	<g transform="translate(0.000000,512.000000) scale(0.100000,-0.100000)" fill="#000000" stroke="none">
	<path d="M1275 5104 c-328 -51 -585 -191 -851 -466 -216 -224 -334 -436 -396 -718 l-23 -105 0 -1255 0 -1255 23 -105 c62 -282 180 -494 396 -718 269 -278 524 -417 859 -466 90 -14 269 -16 1278 -16 1271 0 1276 1 1464 55 256 74 447 196 671 428 216 223 334 435 396 717 l23 105 0 1255 0 1255 -23 105 c-43 192 -121 370 -232 529 -64 91 -249 283 -351 365 -196 156 -426 256 -674 291 -145 21 -2425 20 -2560 -1z m2605 -412 c105 -28 251 -97 339 -159 79 -57 246 -223 308 -307 87 -118 151 -271 178 -425 22 -125 22 -2357 0 -2482 -26 -153 -91 -307 -177 -424 -60 -81 -207 -229 -293 -294 -93 -70 -249 -145 -360 -173 l-90 -23 -1225 0 -1225 0 -89 23 c-109 27 -251 93 -343 159 -81 57 -248 222 -310 307 -87 118 -151 271 -178 425 -22 125 -22 2357 0 2482 40 229 133 398 324 588 143 143 273 228 430 280 147 50 133 50 1421 47 l1205 -2 85 -22z"/>
	<path d="M2496 3536 c-49 -18 -94 -60 -117 -111 -17 -36 -19 -70 -19 -352 l0 -313 -312 0 c-351 0 -363 -2 -425 -73 -90 -103 -51 -257 79 -311 31 -13 90 -16 348 -16 l310 0 0 -310 c0 -338 2 -355 58 -413 41 -43 81 -60 142 -60 61 0 101 17 142 60 56 58 58 75 58 413 l0 310 310 0 c338 0 355 2 413 58 43 41 60 81 60 142 0 61 -17 101 -60 142 -58 56 -75 58 -413 58 l-310 0 0 310 c0 338 -2 355 -58 413 -54 57 -137 78 -206 53z"/>
	</g> 
	<!-- 512.000000pt -->
</svg>
